<svg id="visual" viewBox="0 0 1920 1080" width="1920" height="1080" xmlns="http://www.w3.org/2000/svg" xmlns:xlink="http://www.w3.org/1999/xlink" version="1.1"><rect x="0" y="0" width="1920" height="1080" fill="#111111"></rect><defs><linearGradient id="grad1_0" x1="43.8%" y1="0%" x2="100%" y2="100%"><stop offset="14.444444444444446%" stop-color="#111111" stop-opacity="1"></stop><stop offset="85.55555555555554%" stop-color="#111111" stop-opacity="1"></stop></linearGradient></defs><defs><linearGradient id="grad2_0" x1="0%" y1="0%" x2="56.3%" y2="100%"><stop offset="14.444444444444446%" stop-color="#111111" stop-opacity="1"></stop><stop offset="85.55555555555554%" stop-color="#111111" stop-opacity="1"></stop></linearGradient></defs><g transform="translate(1920, 0)"><path d="M0 432C-68.5 409.2 -137 386.5 -204 353.3C-271 320.2 -336.4 276.6 -374.1 216C-411.9 155.4 -421.9 77.7 -432 0L0 0Z" fill="#00c5fc"></path></g><g transform="translate(0, 1080)"><path d="M0 -432C69.6 -411.1 139.2 -390.2 206 -356.8C272.8 -323.4 336.9 -277.5 374.1 -216C411.3 -154.5 421.7 -77.2 432 0L0 0Z" fill="#00c5fc"></path></g></svg>